<svg width="40" height="40" viewBox="0 0 40 40" fill="none" xmlns="http://www.w3.org/2000/svg">
<path d="M27.6422 13.5678C27.1831 13.1091 26.6381 12.7453 26.0381 12.4971C25.4382 12.2489 24.7952 12.1211 24.1458 12.1211C23.4965 12.1211 22.8534 12.2489 22.2535 12.4971C21.6536 12.7453 21.1085 13.1091 20.6495 13.5678L19.6967 14.5191L18.744 13.5678C17.8167 12.6418 16.559 12.1216 15.2476 12.1216C13.9363 12.1216 12.6786 12.6418 11.7513 13.5678C10.824 14.4937 10.303 15.7496 10.303 17.0592C10.303 18.3687 10.824 19.6246 11.7513 20.5506L12.704 21.5019L19.6967 28.4847L26.6895 21.5019L27.6422 20.5506C28.1015 20.0921 28.4658 19.5478 28.7144 18.9488C28.963 18.3497 29.0909 17.7076 29.0909 17.0592C29.0909 16.4107 28.963 15.7686 28.7144 15.1695C28.4658 14.5705 28.1015 14.0262 27.6422 13.5678Z" stroke="white" stroke-width="2" stroke-linecap="round" stroke-linejoin="round"/>
<circle cx="20" cy="20" r="19" stroke="#66FCF1" stroke-width="2"/>
</svg>
